solid OpenSCAD_Model
  facet normal -0.994522 -0.104529 0
    outer loop
      vertex -12 0 -9
      vertex -11.7378 -2.49494 -9
      vertex -12 0 9
    endloop
  endfacet
  facet normal -0.994522 -0.104529 0
    outer loop
      vertex -12 0 9
      vertex -11.7378 -2.49494 -9
      vertex -11.7378 -2.49494 9
    endloop
  endfacet
  facet normal 0 0 -1
    outer loop
      vertex -12 0 -9
      vertex -11.7378 2.49494 -9
      vertex -11.7378 -2.49494 -9
    endloop
  endfacet
  facet normal 0 0 -1
    outer loop
      vertex -11.7378 -2.49494 -9
      vertex -11.7378 2.49494 -9
      vertex -10.9625 4.88084 -9
    endloop
  endfacet
  facet normal 0 0 -1
    outer loop
      vertex -11.7378 -2.49494 -9
      vertex -10.9625 4.88084 -9
      vertex -9.7082 7.05342 -9
    endloop
  endfacet
  facet normal 0 0 -1
    outer loop
      vertex -11.7378 -2.49494 -9
      vertex -9.7082 7.05342 -9
      vertex -8.02957 8.91774 -9
    endloop
  endfacet
  facet normal 0 0 -1
    outer loop
      vertex -11.7378 -2.49494 -9
      vertex -8.02957 8.91774 -9
      vertex -6 10.3923 -9
    endloop
  endfacet
  facet normal 0 0 -1
    outer loop
      vertex -11.7378 -2.49494 -9
      vertex -6 10.3923 -9
      vertex -3.7082 11.4127 -9
    endloop
  endfacet
  facet normal 0 0 -1
    outer loop
      vertex -6.7 5.5 -9
      vertex -3.7082 11.4127 -9
      vertex -1.25434 11.9343 -9
    endloop
  endfacet
  facet normal 0 0 -1
    outer loop
      vertex -11.7378 -2.49494 -9
      vertex -3.7082 11.4127 -9
      vertex -6.7 5.5 -9
    endloop
  endfacet
  facet normal 0 0 -1
    outer loop
      vertex -6.7 -5.5 -9
      vertex -11.7378 -2.49494 -9
      vertex -6.7 5.5 -9
    endloop
  endfacet
  facet normal 0 0 -1
    outer loop
      vertex -6.7 -5.5 -9
      vertex 5.95 -5.5 -9
      vertex 5.95 -11.9343 -9
    endloop
  endfacet
  facet normal 0 0 -1
    outer loop
      vertex -6.7 -5.5 -9
      vertex 5.95 -11.9343 -9
      vertex -1.25434 -11.9343 -9
    endloop
  endfacet
  facet normal 0 0 -1
    outer loop
      vertex -6.7 -5.5 -9
      vertex -1.25434 -11.9343 -9
      vertex -11.7378 -2.49494 -9
    endloop
  endfacet
  facet normal 0 0 -1
    outer loop
      vertex -11.7378 -2.49494 -9
      vertex -1.25434 -11.9343 -9
      vertex -3.7082 -11.4127 -9
    endloop
  endfacet
  facet normal 0 0 -1
    outer loop
      vertex -11.7378 -2.49494 -9
      vertex -3.7082 -11.4127 -9
      vertex -6 -10.3923 -9
    endloop
  endfacet
  facet normal 0 0 -1
    outer loop
      vertex -11.7378 -2.49494 -9
      vertex -6 -10.3923 -9
      vertex -8.02957 -8.91774 -9
    endloop
  endfacet
  facet normal 0 0 -1
    outer loop
      vertex -11.7378 -2.49494 -9
      vertex -8.02957 -8.91774 -9
      vertex -9.7082 -7.05342 -9
    endloop
  endfacet
  facet normal 0 0 -1
    outer loop
      vertex -11.7378 -2.49494 -9
      vertex -9.7082 -7.05342 -9
      vertex -10.9625 -4.88084 -9
    endloop
  endfacet
  facet normal 0 0 -1
    outer loop
      vertex -6.7 5.5 -9
      vertex -1.25434 11.9343 -9
      vertex 5.95 11.9343 -9
    endloop
  endfacet
  facet normal 0 0 -1
    outer loop
      vertex -6.7 5.5 -9
      vertex 5.95 11.9343 -9
      vertex 5.95 5.5 -9
    endloop
  endfacet
  facet normal -0.994522 0.104529 0
    outer loop
      vertex -12 0 -9
      vertex -12 0 9
      vertex -11.7378 2.49494 -9
    endloop
  endfacet
  facet normal -0.994522 0.104529 0
    outer loop
      vertex -11.7378 2.49494 -9
      vertex -12 0 9
      vertex -11.7378 2.49494 9
    endloop
  endfacet
  facet normal 0 0 1
    outer loop
      vertex -11.7378 2.49494 9
      vertex -12 0 9
      vertex -11.7378 -2.49494 9
    endloop
  endfacet
  facet normal 0 0 1
    outer loop
      vertex -9.7082 -7.05342 9
      vertex -11.7378 2.49494 9
      vertex -10.9625 -4.88084 9
    endloop
  endfacet
  facet normal 0 0 1
    outer loop
      vertex -10.9625 -4.88084 9
      vertex -11.7378 2.49494 9
      vertex -11.7378 -2.49494 9
    endloop
  endfacet
  facet normal 0 0 1
    outer loop
      vertex -8.02957 -8.91774 9
      vertex -11.7378 2.49494 9
      vertex -9.7082 -7.05342 9
    endloop
  endfacet
  facet normal 0 0 1
    outer loop
      vertex -8 -6.5 9
      vertex -11.7378 2.49494 9
      vertex -8.02957 -8.91774 9
    endloop
  endfacet
  facet normal 0 0 1
    outer loop
      vertex -8 -6.5 9
      vertex -8 6.5 9
      vertex -11.7378 2.49494 9
    endloop
  endfacet
  facet normal 0 0 1
    outer loop
      vertex -6 -10.3923 9
      vertex -8 -6.5 9
      vertex -8.02957 -8.91774 9
    endloop
  endfacet
  facet normal 0 0 1
    outer loop
      vertex -3.7082 11.4127 9
      vertex -11.7378 2.49494 9
      vertex -8 6.5 9
    endloop
  endfacet
  facet normal 0 0 1
    outer loop
      vertex 7.95 11.9343 9
      vertex -8 6.5 9
      vertex 7.95 6.5 9
    endloop
  endfacet
  facet normal 0 0 1
    outer loop
      vertex -1.25434 11.9343 9
      vertex -8 6.5 9
      vertex 7.95 11.9343 9
    endloop
  endfacet
  facet normal 0 0 1
    outer loop
      vertex -3.7082 11.4127 9
      vertex -8 6.5 9
      vertex -1.25434 11.9343 9
    endloop
  endfacet
  facet normal 0 0 1
    outer loop
      vertex -6 10.3923 9
      vertex -11.7378 2.49494 9
      vertex -3.7082 11.4127 9
    endloop
  endfacet
  facet normal 0 0 1
    outer loop
      vertex -8.02957 8.91774 9
      vertex -11.7378 2.49494 9
      vertex -6 10.3923 9
    endloop
  endfacet
  facet normal 0 0 1
    outer loop
      vertex -9.7082 7.05342 9
      vertex -11.7378 2.49494 9
      vertex -8.02957 8.91774 9
    endloop
  endfacet
  facet normal 0 0 1
    outer loop
      vertex -10.9625 4.88084 9
      vertex -11.7378 2.49494 9
      vertex -9.7082 7.05342 9
    endloop
  endfacet
  facet normal 0 0 1
    outer loop
      vertex 7.95 -6.5 9
      vertex -1.25434 -11.9343 9
      vertex 7.95 -11.9343 9
    endloop
  endfacet
  facet normal 0 0 1
    outer loop
      vertex 7.95 -6.5 9
      vertex -3.7082 -11.4127 9
      vertex -1.25434 -11.9343 9
    endloop
  endfacet
  facet normal 0 0 1
    outer loop
      vertex 7.95 -6.5 9
      vertex -6 -10.3923 9
      vertex -3.7082 -11.4127 9
    endloop
  endfacet
  facet normal 0 0 1
    outer loop
      vertex 7.95 -6.5 9
      vertex -8 -6.5 9
      vertex -6 -10.3923 9
    endloop
  endfacet
  facet normal -0.951057 -0.309017 0
    outer loop
      vertex -11.7378 -2.49494 -9
      vertex -10.9625 -4.88084 -9
      vertex -11.7378 -2.49494 9
    endloop
  endfacet
  facet normal -0.951057 -0.309017 0
    outer loop
      vertex -11.7378 -2.49494 9
      vertex -10.9625 -4.88084 -9
      vertex -10.9625 -4.88084 9
    endloop
  endfacet
  facet normal -0.866025 -0.5 0
    outer loop
      vertex -10.9625 -4.88084 -9
      vertex -9.7082 -7.05342 -9
      vertex -10.9625 -4.88084 9
    endloop
  endfacet
  facet normal -0.866025 -0.5 0
    outer loop
      vertex -10.9625 -4.88084 9
      vertex -9.7082 -7.05342 -9
      vertex -9.7082 -7.05342 9
    endloop
  endfacet
  facet normal -0.743145 -0.669131 0
    outer loop
      vertex -9.7082 -7.05342 -9
      vertex -8.02957 -8.91774 -9
      vertex -9.7082 -7.05342 9
    endloop
  endfacet
  facet normal -0.743145 -0.669131 0
    outer loop
      vertex -9.7082 -7.05342 9
      vertex -8.02957 -8.91774 -9
      vertex -8.02957 -8.91774 9
    endloop
  endfacet
  facet normal -0.587785 -0.809017 0
    outer loop
      vertex -8.02957 -8.91774 9
      vertex -8.02957 -8.91774 -9
      vertex -6 -10.3923 -9
    endloop
  endfacet
  facet normal -0.587785 -0.809017 0
    outer loop
      vertex -6 -10.3923 9
      vertex -8.02957 -8.91774 9
      vertex -6 -10.3923 -9
    endloop
  endfacet
  facet normal -0.406737 -0.913546 0
    outer loop
      vertex -6 -10.3923 9
      vertex -6 -10.3923 -9
      vertex -3.7082 -11.4127 -9
    endloop
  endfacet
  facet normal -0.406737 -0.913546 0
    outer loop
      vertex -3.7082 -11.4127 9
      vertex -6 -10.3923 9
      vertex -3.7082 -11.4127 -9
    endloop
  endfacet
  facet normal -0.207912 -0.978148 0
    outer loop
      vertex -3.7082 -11.4127 9
      vertex -3.7082 -11.4127 -9
      vertex -1.25434 -11.9343 -9
    endloop
  endfacet
  facet normal -0.207912 -0.978148 0
    outer loop
      vertex -1.25434 -11.9343 9
      vertex -3.7082 -11.4127 9
      vertex -1.25434 -11.9343 -9
    endloop
  endfacet
  facet normal 0 -1 0
    outer loop
      vertex -1.25434 -11.9343 9
      vertex -1.25434 -11.9343 -9
      vertex 5.95 -11.9343 -9
    endloop
  endfacet
  facet normal 0 -1 0
    outer loop
      vertex 7.95 -11.9343 8.94724
      vertex -1.25434 -11.9343 9
      vertex 5.95 -11.9343 8.94724
    endloop
  endfacet
  facet normal 0 -1 0
    outer loop
      vertex 5.95 -11.9343 8.94724
      vertex -1.25434 -11.9343 9
      vertex 5.95 -11.9343 -9
    endloop
  endfacet
  facet normal 0 -1 0
    outer loop
      vertex 7.95 -11.9343 9
      vertex -1.25434 -11.9343 9
      vertex 7.95 -11.9343 8.94724
    endloop
  endfacet
  facet normal 0 -1 0
    outer loop
      vertex 7.95 -11.9343 9
      vertex 7.95 -11.9343 8.94724
      vertex 7.95 -11.9343 4
    endloop
  endfacet
  facet normal -1 0 -2.22045e-16
    outer loop
      vertex 5.95 -15.9731 8.94724
      vertex 5.95 -11.9343 8.94724
      vertex 5.95 -17.8737 8.52888
    endloop
  endfacet
  facet normal -1 0 -2.22045e-16
    outer loop
      vertex 5.95 -17.8737 8.52888
      vertex 5.95 -11.9343 8.94724
      vertex 5.95 -11.9343 -9
    endloop
  endfacet
  facet normal -1 0 -2.22045e-16
    outer loop
      vertex 5.95 -11.9343 -9
      vertex 5.95 -5.5 -9
      vertex 5.95 -15 -9
    endloop
  endfacet
  facet normal -1 0 -2.22045e-16
    outer loop
      vertex 5.95 -16.409 -1.59099
      vertex 5.95 -15 -9
      vertex 5.95 -16.9347 -8.78958
    endloop
  endfacet
  facet normal -1 0 -2.22045e-16
    outer loop
      vertex 5.95 -18 -2.25
      vertex 5.95 -16.9347 -8.78958
      vertex 5.95 -18.779 -8.16818
    endloop
  endfacet
  facet normal -1 0 -2.22045e-16
    outer loop
      vertex 5.95 -18 -2.25
      vertex 5.95 -20.4466 -7.16484
      vertex 5.95 -19.591 -1.59099
    endloop
  endfacet
  facet normal -1 0 -2.22045e-16
    outer loop
      vertex 5.95 -20.25 -2.22045e-16
      vertex 5.95 -21.8595 -5.82648
      vertex 5.95 -22.9516 -4.21568
    endloop
  endfacet
  facet normal -1 0 -2.22045e-16
    outer loop
      vertex 5.95 -17.8737 8.52888
      vertex 5.95 -22.9516 -4.21568
      vertex 5.95 -23.6719 -2.40775
    endloop
  endfacet
  facet normal -1 0 -2.22045e-16
    outer loop
      vertex 5.95 -17.8737 8.52888
      vertex 5.95 -23.6719 -2.40775
      vertex 5.95 -23.9868 -0.48725
    endloop
  endfacet
  facet normal -1 0 -2.22045e-16
    outer loop
      vertex 5.95 -17.8737 8.52888
      vertex 5.95 -23.9868 -0.48725
      vertex 5.95 -23.8814 1.45604
    endloop
  endfacet
  facet normal -1 0 -2.22045e-16
    outer loop
      vertex 5.95 -17.8737 8.52888
      vertex 5.95 -23.8814 1.45604
      vertex 5.95 -23.3608 3.33124
    endloop
  endfacet
  facet normal -1 0 -2.22045e-16
    outer loop
      vertex 5.95 -17.8737 8.52888
      vertex 5.95 -23.3608 3.33124
      vertex 5.95 -22.4492 5.05068
    endloop
  endfacet
  facet normal -1 0 -2.22045e-16
    outer loop
      vertex 5.95 -17.8737 8.52888
      vertex 5.95 -22.4492 5.05068
      vertex 5.95 -21.1893 6.53396
    endloop
  endfacet
  facet normal -1 0 -2.22045e-16
    outer loop
      vertex 5.95 -17.8737 8.52888
      vertex 5.95 -21.1893 6.53396
      vertex 5.95 -19.64 7.71171
    endloop
  endfacet
  facet normal -1 0 -2.22045e-16
    outer loop
      vertex 5.95 -19.591 1.59099
      vertex 5.95 -17.8737 8.52888
      vertex 5.95 -18 2.25
    endloop
  endfacet
  facet normal -1 0 -2.22045e-16
    outer loop
      vertex 5.95 -18 -2.25
      vertex 5.95 -18.779 -8.16818
      vertex 5.95 -20.4466 -7.16484
    endloop
  endfacet
  facet normal -1 0 -2.22045e-16
    outer loop
      vertex 5.95 -19.591 -1.59099
      vertex 5.95 -21.8595 -5.82648
      vertex 5.95 -20.25 -2.22045e-16
    endloop
  endfacet
  facet normal -1 0 -2.22045e-16
    outer loop
      vertex 5.95 -19.591 -1.59099
      vertex 5.95 -20.4466 -7.16484
      vertex 5.95 -21.8595 -5.82648
    endloop
  endfacet
  facet normal -1 0 -2.22045e-16
    outer loop
      vertex 5.95 -17.8737 8.52888
      vertex 5.95 -20.25 -2.22045e-16
      vertex 5.95 -22.9516 -4.21568
    endloop
  endfacet
  facet normal -1 0 -2.22045e-16
    outer loop
      vertex 5.95 -20.25 -2.22045e-16
      vertex 5.95 -17.8737 8.52888
      vertex 5.95 -19.591 1.59099
    endloop
  endfacet
  facet normal -1 0 -2.22045e-16
    outer loop
      vertex 5.95 -16.409 -1.59099
      vertex 5.95 -16.9347 -8.78958
      vertex 5.95 -18 -2.25
    endloop
  endfacet
  facet normal -1 0 -2.22045e-16
    outer loop
      vertex 5.95 -11.9343 -9
      vertex 5.95 -15 -9
      vertex 5.95 -15.75 -2.22045e-16
    endloop
  endfacet
  facet normal -1 0 -2.22045e-16
    outer loop
      vertex 5.95 -11.9343 -9
      vertex 5.95 -15.75 -2.22045e-16
      vertex 5.95 -17.8737 8.52888
    endloop
  endfacet
  facet normal -1 0 -2.22045e-16
    outer loop
      vertex 5.95 -15.75 -2.22045e-16
      vertex 5.95 -16.409 1.59099
      vertex 5.95 -17.8737 8.52888
    endloop
  endfacet
  facet normal -1 0 -2.22045e-16
    outer loop
      vertex 5.95 -18 2.25
      vertex 5.95 -17.8737 8.52888
      vertex 5.95 -16.409 1.59099
    endloop
  endfacet
  facet normal -1 0 -2.22045e-16
    outer loop
      vertex 5.95 -15.75 -2.22045e-16
      vertex 5.95 -15 -9
      vertex 5.95 -16.409 -1.59099
    endloop
  endfacet
  facet normal 0 1 0
    outer loop
      vertex 7.95 -5.5 -7
      vertex 7.95 -5.5 -9
      vertex -6.7 -5.5 -7
    endloop
  endfacet
  facet normal 0 1 0
    outer loop
      vertex -6.7 -5.5 -7
      vertex 7.95 -5.5 -9
      vertex 6.95 -5.5 -9
    endloop
  endfacet
  facet normal 0 1 0
    outer loop
      vertex -6.7 -5.5 -7
      vertex 6.95 -5.5 -9
      vertex 5.95 -5.5 -9
    endloop
  endfacet
  facet normal 0 1 0
    outer loop
      vertex -6.7 -5.5 -9
      vertex -6.7 -5.5 -7
      vertex 5.95 -5.5 -9
    endloop
  endfacet
  facet normal 1 0 0
    outer loop
      vertex -6.7 5.5 -9
      vertex -6.7 5.5 -7
      vertex -6.7 -5.5 -7
    endloop
  endfacet
  facet normal 1 0 0
    outer loop
      vertex -6.7 -5.5 -9
      vertex -6.7 5.5 -9
      vertex -6.7 -5.5 -7
    endloop
  endfacet
  facet normal 0 -1 0
    outer loop
      vertex 7.95 5.5 -7
      vertex 5.95 5.5 -9
      vertex 6.95 5.5 -9
    endloop
  endfacet
  facet normal 0 -1 0
    outer loop
      vertex 7.95 5.5 -9
      vertex 7.95 5.5 -7
      vertex 6.95 5.5 -9
    endloop
  endfacet
  facet normal 0 -1 0
    outer loop
      vertex 7.95 5.5 -7
      vertex -6.7 5.5 -7
      vertex 5.95 5.5 -9
    endloop
  endfacet
  facet normal 0 -1 0
    outer loop
      vertex -6.7 5.5 -9
      vertex 5.95 5.5 -9
      vertex -6.7 5.5 -7
    endloop
  endfacet
  facet normal -1 0 -2.22045e-16
    outer loop
      vertex 5.95 11.9343 8.94724
      vertex 5.95 15.9731 8.94724
      vertex 5.95 11.9343 -9
    endloop
  endfacet
  facet normal -1 0 -2.22045e-16
    outer loop
      vertex 5.95 11.9343 -9
      vertex 5.95 15.9731 8.94724
      vertex 5.95 17.8737 8.52888
    endloop
  endfacet
  facet normal -1 0 -2.22045e-16
    outer loop
      vertex 5.95 16.409 1.59099
      vertex 5.95 17.8737 8.52888
      vertex 5.95 19.64 7.71171
    endloop
  endfacet
  facet normal -1 0 -2.22045e-16
    outer loop
      vertex 5.95 18 2.25
      vertex 5.95 19.64 7.71171
      vertex 5.95 21.1893 6.53396
    endloop
  endfacet
  facet normal -1 0 -2.22045e-16
    outer loop
      vertex 5.95 19.591 -1.59099
      vertex 5.95 23.3608 3.33124
      vertex 5.95 23.8814 1.45604
    endloop
  endfacet
  facet normal -1 0 -2.22045e-16
    outer loop
      vertex 5.95 11.9343 -9
      vertex 5.95 23.8814 1.45604
      vertex 5.95 23.9868 -0.48725
    endloop
  endfacet
  facet normal -1 0 -2.22045e-16
    outer loop
      vertex 5.95 11.9343 -9
      vertex 5.95 23.9868 -0.48725
      vertex 5.95 23.6719 -2.40775
    endloop
  endfacet
  facet normal -1 0 -2.22045e-16
    outer loop
      vertex 5.95 11.9343 -9
      vertex 5.95 23.6719 -2.40775
      vertex 5.95 22.9516 -4.21568
    endloop
  endfacet
  facet normal -1 0 -2.22045e-16
    outer loop
      vertex 5.95 11.9343 -9
      vertex 5.95 22.9516 -4.21568
      vertex 5.95 21.8595 -5.82648
    endloop
  endfacet
  facet normal -1 0 -2.22045e-16
    outer loop
      vertex 5.95 11.9343 -9
      vertex 5.95 21.8595 -5.82648
      vertex 5.95 20.4466 -7.16484
    endloop
  endfacet
  facet normal -1 0 -2.22045e-16
    outer loop
      vertex 5.95 11.9343 -9
      vertex 5.95 20.4466 -7.16484
      vertex 5.95 18.779 -8.16818
    endloop
  endfacet
  facet normal -1 0 -2.22045e-16
    outer loop
      vertex 5.95 11.9343 -9
      vertex 5.95 18.779 -8.16818
      vertex 5.95 16.9347 -8.78958
    endloop
  endfacet
  facet normal -1 0 -2.22045e-16
    outer loop
      vertex 5.95 11.9343 -9
      vertex 5.95 16.9347 -8.78958
      vertex 5.95 15 -9
    endloop
  endfacet
  facet normal -1 0 -2.22045e-16
    outer loop
      vertex 5.95 11.9343 -9
      vertex 5.95 15 -9
      vertex 5.95 5.5 -9
    endloop
  endfacet
  facet normal -1 0 -2.22045e-16
    outer loop
      vertex 5.95 18 2.25
      vertex 5.95 21.1893 6.53396
      vertex 5.95 22.4492 5.05068
    endloop
  endfacet
  facet normal -1 0 -2.22045e-16
    outer loop
      vertex 5.95 18 2.25
      vertex 5.95 22.4492 5.05068
      vertex 5.95 19.591 1.59099
    endloop
  endfacet
  facet normal -1 0 -2.22045e-16
    outer loop
      vertex 5.95 16.409 1.59099
      vertex 5.95 19.64 7.71171
      vertex 5.95 18 2.25
    endloop
  endfacet
  facet normal -1 0 -2.22045e-16
    outer loop
      vertex 5.95 11.9343 -9
      vertex 5.95 17.8737 8.52888
      vertex 5.95 16.409 1.59099
    endloop
  endfacet
  facet normal -1 0 -2.22045e-16
    outer loop
      vertex 5.95 16.409 -1.59099
      vertex 5.95 11.9343 -9
      vertex 5.95 15.75 -2.22045e-16
    endloop
  endfacet
  facet normal -1 0 -2.22045e-16
    outer loop
      vertex 5.95 11.9343 -9
      vertex 5.95 16.409 1.59099
      vertex 5.95 15.75 -2.22045e-16
    endloop
  endfacet
  facet normal -1 0 -2.22045e-16
    outer loop
      vertex 5.95 19.591 -1.59099
      vertex 5.95 11.9343 -9
      vertex 5.95 18 -2.25
    endloop
  endfacet
  facet normal -1 0 -2.22045e-16
    outer loop
      vertex 5.95 19.591 1.59099
      vertex 5.95 22.4492 5.05068
      vertex 5.95 23.3608 3.33124
    endloop
  endfacet
  facet normal -1 0 -2.22045e-16
    outer loop
      vertex 5.95 11.9343 -9
      vertex 5.95 19.591 -1.59099
      vertex 5.95 23.8814 1.45604
    endloop
  endfacet
  facet normal -1 0 -2.22045e-16
    outer loop
      vertex 5.95 19.591 1.59099
      vertex 5.95 23.3608 3.33124
      vertex 5.95 20.25 -2.22045e-16
    endloop
  endfacet
  facet normal -1 0 -2.22045e-16
    outer loop
      vertex 5.95 20.25 -2.22045e-16
      vertex 5.95 23.3608 3.33124
      vertex 5.95 19.591 -1.59099
    endloop
  endfacet
  facet normal -1 0 -2.22045e-16
    outer loop
      vertex 5.95 18 -2.25
      vertex 5.95 11.9343 -9
      vertex 5.95 16.409 -1.59099
    endloop
  endfacet
  facet normal 0 1 0
    outer loop
      vertex -1.25434 11.9343 -9
      vertex -1.25434 11.9343 9
      vertex 5.95 11.9343 -9
    endloop
  endfacet
  facet normal 0 1 0
    outer loop
      vertex 5.95 11.9343 8.94724
      vertex -1.25434 11.9343 9
      vertex 7.95 11.9343 9
    endloop
  endfacet
  facet normal 0 1 0
    outer loop
      vertex 7.95 11.9343 8.94724
      vertex 7.95 11.9343 9
      vertex 7.95 11.9343 4
    endloop
  endfacet
  facet normal 0 1 0
    outer loop
      vertex 5.95 11.9343 -9
      vertex -1.25434 11.9343 9
      vertex 5.95 11.9343 8.94724
    endloop
  endfacet
  facet normal 0 1 0
    outer loop
      vertex 5.95 11.9343 8.94724
      vertex 7.95 11.9343 9
      vertex 7.95 11.9343 8.94724
    endloop
  endfacet
  facet normal -0.207912 0.978148 0
    outer loop
      vertex -3.7082 11.4127 -9
      vertex -3.7082 11.4127 9
      vertex -1.25434 11.9343 -9
    endloop
  endfacet
  facet normal -0.207912 0.978148 0
    outer loop
      vertex -1.25434 11.9343 -9
      vertex -3.7082 11.4127 9
      vertex -1.25434 11.9343 9
    endloop
  endfacet
  facet normal -0.406737 0.913546 0
    outer loop
      vertex -6 10.3923 -9
      vertex -6 10.3923 9
      vertex -3.7082 11.4127 -9
    endloop
  endfacet
  facet normal -0.406737 0.913546 0
    outer loop
      vertex -3.7082 11.4127 -9
      vertex -6 10.3923 9
      vertex -3.7082 11.4127 9
    endloop
  endfacet
  facet normal -0.587785 0.809017 0
    outer loop
      vertex -8.02957 8.91774 -9
      vertex -8.02957 8.91774 9
      vertex -6 10.3923 -9
    endloop
  endfacet
  facet normal -0.587785 0.809017 0
    outer loop
      vertex -6 10.3923 -9
      vertex -8.02957 8.91774 9
      vertex -6 10.3923 9
    endloop
  endfacet
  facet normal -0.743145 0.669131 0
    outer loop
      vertex -9.7082 7.05342 -9
      vertex -9.7082 7.05342 9
      vertex -8.02957 8.91774 -9
    endloop
  endfacet
  facet normal -0.743145 0.669131 0
    outer loop
      vertex -8.02957 8.91774 -9
      vertex -9.7082 7.05342 9
      vertex -8.02957 8.91774 9
    endloop
  endfacet
  facet normal -0.866025 0.5 0
    outer loop
      vertex -10.9625 4.88084 -9
      vertex -10.9625 4.88084 9
      vertex -9.7082 7.05342 -9
    endloop
  endfacet
  facet normal -0.866025 0.5 0
    outer loop
      vertex -9.7082 7.05342 -9
      vertex -10.9625 4.88084 9
      vertex -9.7082 7.05342 9
    endloop
  endfacet
  facet normal -0.951057 0.309017 0
    outer loop
      vertex -11.7378 2.49494 -9
      vertex -11.7378 2.49494 9
      vertex -10.9625 4.88084 -9
    endloop
  endfacet
  facet normal -0.951057 0.309017 0
    outer loop
      vertex -10.9625 4.88084 -9
      vertex -11.7378 2.49494 9
      vertex -10.9625 4.88084 9
    endloop
  endfacet
  facet normal 1 0 0
    outer loop
      vertex 7.95 12.5 4
      vertex 7.95 11.9343 -9
      vertex 7.95 12.5 -9
    endloop
  endfacet
  facet normal 1 0 0
    outer loop
      vertex 7.95 11.9343 4
      vertex 7.95 11.9343 -9
      vertex 7.95 12.5 4
    endloop
  endfacet
  facet normal 1 0 0
    outer loop
      vertex 7.95 6.5 9
      vertex 7.95 11.9343 -9
      vertex 7.95 11.9343 4
    endloop
  endfacet
  facet normal 1 0 0
    outer loop
      vertex 7.95 6.5 9
      vertex 7.95 11.9343 4
      vertex 7.95 11.9343 9
    endloop
  endfacet
  facet normal 1 0 0
    outer loop
      vertex 7.95 6.5 -7
      vertex 7.95 11.9343 -9
      vertex 7.95 6.5 9
    endloop
  endfacet
  facet normal 1 0 0
    outer loop
      vertex 7.95 5.5 -7
      vertex 7.95 11.9343 -9
      vertex 7.95 6.5 -7
    endloop
  endfacet
  facet normal 1 0 0
    outer loop
      vertex 7.95 5.5 -9
      vertex 7.95 11.9343 -9
      vertex 7.95 5.5 -7
    endloop
  endfacet
  facet normal 0 -1 0
    outer loop
      vertex 7.95 6.5 -7
      vertex 7.95 6.5 9
      vertex -8 6.5 9
    endloop
  endfacet
  facet normal 0 -1 0
    outer loop
      vertex -8 6.5 -7
      vertex 7.95 6.5 -7
      vertex -8 6.5 9
    endloop
  endfacet
  facet normal 1 0 0
    outer loop
      vertex -8 6.5 -7
      vertex -8 6.5 9
      vertex -8 -6.5 9
    endloop
  endfacet
  facet normal 1 0 0
    outer loop
      vertex -8 -6.5 -7
      vertex -8 6.5 -7
      vertex -8 -6.5 9
    endloop
  endfacet
  facet normal 0 1 0
    outer loop
      vertex 7.95 -6.5 9
      vertex 7.95 -6.5 -7
      vertex -8 -6.5 9
    endloop
  endfacet
  facet normal 0 1 0
    outer loop
      vertex -8 -6.5 9
      vertex 7.95 -6.5 -7
      vertex -8 -6.5 -7
    endloop
  endfacet
  facet normal 1 0 0
    outer loop
      vertex 7.95 -6.5 -7
      vertex 7.95 -11.9343 -9
      vertex 7.95 -5.5 -7
    endloop
  endfacet
  facet normal 1 0 0
    outer loop
      vertex 7.95 -5.5 -7
      vertex 7.95 -11.9343 -9
      vertex 7.95 -5.5 -9
    endloop
  endfacet
  facet normal 1 0 0
    outer loop
      vertex 7.95 -6.5 9
      vertex 7.95 -11.9343 -9
      vertex 7.95 -6.5 -7
    endloop
  endfacet
  facet normal 1 0 0
    outer loop
      vertex 7.95 -11.9343 4
      vertex 7.95 -11.9343 -9
      vertex 7.95 -6.5 9
    endloop
  endfacet
  facet normal 1 0 0
    outer loop
      vertex 7.95 -12.5 4
      vertex 7.95 -11.9343 -9
      vertex 7.95 -11.9343 4
    endloop
  endfacet
  facet normal 1 0 0
    outer loop
      vertex 7.95 -11.9343 9
      vertex 7.95 -11.9343 4
      vertex 7.95 -6.5 9
    endloop
  endfacet
  facet normal 1 0 0
    outer loop
      vertex 7.95 -12.5 -9
      vertex 7.95 -11.9343 -9
      vertex 7.95 -12.5 4
    endloop
  endfacet
  facet normal 1 0 2.22045e-16
    outer loop
      vertex 7.95 -11.9343 8.94724
      vertex 7.95 -15.9731 8.94724
      vertex 7.95 -17.8737 8.52888
    endloop
  endfacet
  facet normal 1 0 2.22045e-16
    outer loop
      vertex 7.95 -21.1893 6.53396
      vertex 7.95 -11.9343 8.94724
      vertex 7.95 -19.64 7.71171
    endloop
  endfacet
  facet normal 1 0 2.22045e-16
    outer loop
      vertex 7.95 -19.64 7.71171
      vertex 7.95 -11.9343 8.94724
      vertex 7.95 -17.8737 8.52888
    endloop
  endfacet
  facet normal 1 0 2.22045e-16
    outer loop
      vertex 7.95 -22.4492 5.05068
      vertex 7.95 -11.9343 8.94724
      vertex 7.95 -21.1893 6.53396
    endloop
  endfacet
  facet normal 1 0 2.22045e-16
    outer loop
      vertex 7.95 -23.3608 3.33124
      vertex 7.95 -11.9343 8.94724
      vertex 7.95 -22.4492 5.05068
    endloop
  endfacet
  facet normal 1 0 2.22045e-16
    outer loop
      vertex 7.95 -23.8814 1.45604
      vertex 7.95 -11.9343 8.94724
      vertex 7.95 -23.3608 3.33124
    endloop
  endfacet
  facet normal 1 0 2.22045e-16
    outer loop
      vertex 7.95 -23.9868 -0.48725
      vertex 7.95 -11.9343 8.94724
      vertex 7.95 -23.8814 1.45604
    endloop
  endfacet
  facet normal 1 0 2.22045e-16
    outer loop
      vertex 7.95 -19.591 1.59099
      vertex 7.95 -11.9343 8.94724
      vertex 7.95 -23.9868 -0.48725
    endloop
  endfacet
  facet normal 1 0 2.22045e-16
    outer loop
      vertex 7.95 -16.409 1.59099
      vertex 7.95 -15.75 2.22045e-16
      vertex 7.95 -11.9343 8.94724
    endloop
  endfacet
  facet normal 1 0 2.22045e-16
    outer loop
      vertex 7.95 -16.9347 -8.78958
      vertex 7.95 -11.9343 8.94724
      vertex 7.95 -18.779 -8.16818
    endloop
  endfacet
  facet normal 1 0 2.22045e-16
    outer loop
      vertex 7.95 -15 -9
      vertex 7.95 -11.9343 8.94724
      vertex 7.95 -16.9347 -8.78958
    endloop
  endfacet
  facet normal 1 0 2.22045e-16
    outer loop
      vertex 7.95 -12.5 4
      vertex 7.95 -11.9343 8.94724
      vertex 7.95 -15 -9
    endloop
  endfacet
  facet normal 1 0 2.22045e-16
    outer loop
      vertex 7.95 -19.591 1.59099
      vertex 7.95 -18 2.25
      vertex 7.95 -11.9343 8.94724
    endloop
  endfacet
  facet normal 1 0 2.22045e-16
    outer loop
      vertex 7.95 -12.5 -9
      vertex 7.95 -12.5 4
      vertex 7.95 -15 -9
    endloop
  endfacet
  facet normal 1 0 2.22045e-16
    outer loop
      vertex 7.95 -23.6719 -2.40775
      vertex 7.95 -19.591 1.59099
      vertex 7.95 -23.9868 -0.48725
    endloop
  endfacet
  facet normal 1 0 2.22045e-16
    outer loop
      vertex 7.95 -18 -2.25
      vertex 7.95 -19.591 -1.59099
      vertex 7.95 -21.8595 -5.82648
    endloop
  endfacet
  facet normal 1 0 2.22045e-16
    outer loop
      vertex 7.95 -18 -2.25
      vertex 7.95 -21.8595 -5.82648
      vertex 7.95 -20.4466 -7.16484
    endloop
  endfacet
  facet normal 1 0 2.22045e-16
    outer loop
      vertex 7.95 -18.779 -8.16818
      vertex 7.95 -11.9343 8.94724
      vertex 7.95 -15.75 2.22045e-16
    endloop
  endfacet
  facet normal 1 0 2.22045e-16
    outer loop
      vertex 7.95 -18.779 -8.16818
      vertex 7.95 -16.409 -1.59099
      vertex 7.95 -20.4466 -7.16484
    endloop
  endfacet
  facet normal 1 0 2.22045e-16
    outer loop
      vertex 7.95 -18.779 -8.16818
      vertex 7.95 -15.75 2.22045e-16
      vertex 7.95 -16.409 -1.59099
    endloop
  endfacet
  facet normal 1 0 2.22045e-16
    outer loop
      vertex 7.95 -19.591 -1.59099
      vertex 7.95 -20.25 2.22045e-16
      vertex 7.95 -22.9516 -4.21568
    endloop
  endfacet
  facet normal 1 0 2.22045e-16
    outer loop
      vertex 7.95 -16.409 -1.59099
      vertex 7.95 -18 -2.25
      vertex 7.95 -20.4466 -7.16484
    endloop
  endfacet
  facet normal 1 0 2.22045e-16
    outer loop
      vertex 7.95 -21.8595 -5.82648
      vertex 7.95 -19.591 -1.59099
      vertex 7.95 -22.9516 -4.21568
    endloop
  endfacet
  facet normal 1 0 2.22045e-16
    outer loop
      vertex 7.95 -22.9516 -4.21568
      vertex 7.95 -20.25 2.22045e-16
      vertex 7.95 -23.6719 -2.40775
    endloop
  endfacet
  facet normal 1 0 2.22045e-16
    outer loop
      vertex 7.95 -12.5 4
      vertex 7.95 -11.9343 4
      vertex 7.95 -11.9343 8.94724
    endloop
  endfacet
  facet normal 1 0 2.22045e-16
    outer loop
      vertex 7.95 -20.25 2.22045e-16
      vertex 7.95 -19.591 1.59099
      vertex 7.95 -23.6719 -2.40775
    endloop
  endfacet
  facet normal 1 0 2.22045e-16
    outer loop
      vertex 7.95 -18 2.25
      vertex 7.95 -16.409 1.59099
      vertex 7.95 -11.9343 8.94724
    endloop
  endfacet
  facet normal -2.22045e-16 0 1
    outer loop
      vertex 5.95 -11.9343 8.94724
      vertex 5.95 -15.9731 8.94724
      vertex 7.95 -15.9731 8.94724
    endloop
  endfacet
  facet normal -2.22045e-16 0 1
    outer loop
      vertex 7.95 -11.9343 8.94724
      vertex 5.95 -11.9343 8.94724
      vertex 7.95 -15.9731 8.94724
    endloop
  endfacet
  facet normal -2.01522e-16 -0.419889 0.907575
    outer loop
      vertex 7.95 -17.8737 8.52888
      vertex 5.95 -17.8737 8.52888
      vertex 5.95 -19.64 7.71171
    endloop
  endfacet
  facet normal -2.01522e-16 -0.419889 0.907575
    outer loop
      vertex 7.95 -19.64 7.71171
      vertex 7.95 -17.8737 8.52888
      vertex 5.95 -19.64 7.71171
    endloop
  endfacet
  facet normal -2.16853e-16 -0.21497 0.976621
    outer loop
      vertex 7.95 -15.9731 8.94724
      vertex 5.95 -15.9731 8.94724
      vertex 5.95 -17.8737 8.52888
    endloop
  endfacet
  facet normal -2.16853e-16 -0.21497 0.976621
    outer loop
      vertex 7.95 -17.8737 8.52888
      vertex 7.95 -15.9731 8.94724
      vertex 5.95 -17.8737 8.52888
    endloop
  endfacet
  facet normal -1.76768e-16 -0.605175 0.796093
    outer loop
      vertex 7.95 -19.64 7.71171
      vertex 5.95 -19.64 7.71171
      vertex 5.95 -21.1893 6.53396
    endloop
  endfacet
  facet normal -1.76768e-16 -0.605175 0.796093
    outer loop
      vertex 7.95 -21.1893 6.53396
      vertex 7.95 -19.64 7.71171
      vertex 5.95 -21.1893 6.53396
    endloop
  endfacet
  facet normal -1.43749e-16 -0.762162 0.647387
    outer loop
      vertex 7.95 -21.1893 6.53396
      vertex 5.95 -21.1893 6.53396
      vertex 5.95 -22.4492 5.05068
    endloop
  endfacet
  facet normal -1.43749e-16 -0.762162 0.647387
    outer loop
      vertex 7.95 -22.4492 5.05068
      vertex 7.95 -21.1893 6.53396
      vertex 5.95 -22.4492 5.05068
    endloop
  endfacet
  facet normal -1.04007e-16 -0.883512 0.468408
    outer loop
      vertex 7.95 -22.4492 5.05068
      vertex 5.95 -22.4492 5.05068
      vertex 5.95 -23.3608 3.33124
    endloop
  endfacet
  facet normal -1.04007e-16 -0.883512 0.468408
    outer loop
      vertex 7.95 -23.3608 3.33124
      vertex 7.95 -22.4492 5.05068
      vertex 5.95 -23.3608 3.33124
    endloop
  endfacet
  facet normal -5.94033e-17 -0.96355 0.267529
    outer loop
      vertex 7.95 -23.3608 3.33124
      vertex 5.95 -23.3608 3.33124
      vertex 5.95 -23.8814 1.45604
    endloop
  endfacet
  facet normal -5.94033e-17 -0.96355 0.267529
    outer loop
      vertex 7.95 -23.8814 1.45604
      vertex 7.95 -23.3608 3.33124
      vertex 5.95 -23.8814 1.45604
    endloop
  endfacet
  facet normal -1.20213e-17 -0.998533 0.0541389
    outer loop
      vertex 7.95 -23.8814 1.45604
      vertex 5.95 -23.8814 1.45604
      vertex 5.95 -23.9868 -0.48725
    endloop
  endfacet
  facet normal -1.20213e-17 -0.998533 0.0541389
    outer loop
      vertex 7.95 -23.9868 -0.48725
      vertex 7.95 -23.8814 1.45604
      vertex 5.95 -23.9868 -0.48725
    endloop
  endfacet
  facet normal 3.59228e-17 -0.986827 -0.161782
    outer loop
      vertex 7.95 -23.9868 -0.48725
      vertex 5.95 -23.9868 -0.48725
      vertex 5.95 -23.6719 -2.40775
    endloop
  endfacet
  facet normal 3.59228e-17 -0.986827 -0.161782
    outer loop
      vertex 7.95 -23.6719 -2.40775
      vertex 7.95 -23.9868 -0.48725
      vertex 5.95 -23.6719 -2.40775
    endloop
  endfacet
  facet normal 8.21872e-17 -0.928977 -0.370138
    outer loop
      vertex 7.95 -23.6719 -2.40775
      vertex 5.95 -23.6719 -2.40775
      vertex 5.95 -22.9516 -4.21568
    endloop
  endfacet
  facet normal 8.21872e-17 -0.928977 -0.370138
    outer loop
      vertex 7.95 -22.9516 -4.21568
      vertex 7.95 -23.6719 -2.40775
      vertex 5.95 -22.9516 -4.21568
    endloop
  endfacet
  facet normal 1.24609e-16 -0.827689 -0.561187
    outer loop
      vertex 7.95 -22.9516 -4.21568
      vertex 5.95 -22.9516 -4.21568
      vertex 5.95 -21.8595 -5.82648
    endloop
  endfacet
  facet normal 1.24609e-16 -0.827689 -0.561187
    outer loop
      vertex 7.95 -21.8595 -5.82648
      vertex 7.95 -22.9516 -4.21568
      vertex 5.95 -21.8595 -5.82648
    endloop
  endfacet
  facet normal 1.61203e-16 -0.6877 -0.725995
    outer loop
      vertex 5.95 -21.8595 -5.82648
      vertex 5.95 -20.4466 -7.16484
      vertex 7.95 -21.8595 -5.82648
    endloop
  endfacet
  facet normal 1.61203e-16 -0.6877 -0.725995
    outer loop
      vertex 7.95 -21.8595 -5.82648
      vertex 5.95 -20.4466 -7.16484
      vertex 7.95 -20.4466 -7.16484
    endloop
  endfacet
  facet normal 1.90261e-16 -0.515554 -0.856857
    outer loop
      vertex 5.95 -20.4466 -7.16484
      vertex 5.95 -18.779 -8.16818
      vertex 7.95 -20.4466 -7.16484
    endloop
  endfacet
  facet normal 1.90261e-16 -0.515554 -0.856857
    outer loop
      vertex 7.95 -20.4466 -7.16484
      vertex 5.95 -18.779 -8.16818
      vertex 7.95 -18.779 -8.16818
    endloop
  endfacet
  facet normal 2.10421e-16 -0.319301 -0.947653
    outer loop
      vertex 5.95 -18.779 -8.16818
      vertex 5.95 -16.9347 -8.78958
      vertex 7.95 -18.779 -8.16818
    endloop
  endfacet
  facet normal 2.10421e-16 -0.319301 -0.947653
    outer loop
      vertex 7.95 -18.779 -8.16818
      vertex 5.95 -16.9347 -8.78958
      vertex 7.95 -16.9347 -8.78958
    endloop
  endfacet
  facet normal 2.20743e-16 -0.108119 -0.994138
    outer loop
      vertex 5.95 -16.9347 -8.78958
      vertex 5.95 -15 -9
      vertex 7.95 -16.9347 -8.78958
    endloop
  endfacet
  facet normal 2.20743e-16 -0.108119 -0.994138
    outer loop
      vertex 7.95 -16.9347 -8.78958
      vertex 5.95 -15 -9
      vertex 7.95 -15 -9
    endloop
  endfacet
  facet normal 2.22045e-16 0 -1
    outer loop
      vertex 7.95 -12.5 -9
      vertex 7.95 -15 -9
      vertex 6.95 -11.9343 -9
    endloop
  endfacet
  facet normal 2.22045e-16 0 -1
    outer loop
      vertex 7.95 -11.9343 -9
      vertex 7.95 -12.5 -9
      vertex 6.95 -11.9343 -9
    endloop
  endfacet
  facet normal 2.22045e-16 0 -1
    outer loop
      vertex 5.95 -15 -9
      vertex 5.95 -5.5 -9
      vertex 6.95 -11.9343 -9
    endloop
  endfacet
  facet normal 2.22045e-16 0 -1
    outer loop
      vertex 5.95 -15 -9
      vertex 6.95 -11.9343 -9
      vertex 7.95 -15 -9
    endloop
  endfacet
  facet normal 2.22045e-16 0 -1
    outer loop
      vertex 6.95 -11.9343 -9
      vertex 5.95 -5.5 -9
      vertex 6.95 -5.5 -9
    endloop
  endfacet
  facet normal 2.05142e-16 -0.382684 -0.923879
    outer loop
      vertex 7.95 -16.409 1.59099
      vertex 7.95 -18 2.25
      vertex 5.95 -16.409 1.59099
    endloop
  endfacet
  facet normal 2.05142e-16 -0.382684 -0.923879
    outer loop
      vertex 5.95 -16.409 1.59099
      vertex 7.95 -18 2.25
      vertex 5.95 -18 2.25
    endloop
  endfacet
  facet normal 2.05142e-16 0.382684 -0.923879
    outer loop
      vertex 7.95 -19.591 1.59099
      vertex 5.95 -19.591 1.59099
      vertex 7.95 -18 2.25
    endloop
  endfacet
  facet normal 2.05142e-16 0.382684 -0.923879
    outer loop
      vertex 7.95 -18 2.25
      vertex 5.95 -19.591 1.59099
      vertex 5.95 -18 2.25
    endloop
  endfacet
  facet normal 8.49728e-17 -0.923879 -0.382684
    outer loop
      vertex 5.95 -15.75 -2.22045e-16
      vertex 7.95 -15.75 2.22045e-16
      vertex 7.95 -16.409 1.59099
    endloop
  endfacet
  facet normal 8.49728e-17 -0.923879 -0.382684
    outer loop
      vertex 5.95 -16.409 1.59099
      vertex 5.95 -15.75 -2.22045e-16
      vertex 7.95 -16.409 1.59099
    endloop
  endfacet
  facet normal -8.49728e-17 -0.923879 0.382684
    outer loop
      vertex 5.95 -16.409 -1.59099
      vertex 7.95 -16.409 -1.59099
      vertex 7.95 -15.75 2.22045e-16
    endloop
  endfacet
  facet normal -8.49728e-17 -0.923879 0.382684
    outer loop
      vertex 5.95 -15.75 -2.22045e-16
      vertex 5.95 -16.409 -1.59099
      vertex 7.95 -15.75 2.22045e-16
    endloop
  endfacet
  facet normal -2.05142e-16 -0.382684 0.923879
    outer loop
      vertex 5.95 -18 -2.25
      vertex 7.95 -18 -2.25
      vertex 7.95 -16.409 -1.59099
    endloop
  endfacet
  facet normal -2.05142e-16 -0.382684 0.923879
    outer loop
      vertex 5.95 -16.409 -1.59099
      vertex 5.95 -18 -2.25
      vertex 7.95 -16.409 -1.59099
    endloop
  endfacet
  facet normal -2.05142e-16 0.382684 0.923879
    outer loop
      vertex 7.95 -19.591 -1.59099
      vertex 7.95 -18 -2.25
      vertex 5.95 -18 -2.25
    endloop
  endfacet
  facet normal -2.05142e-16 0.382684 0.923879
    outer loop
      vertex 5.95 -19.591 -1.59099
      vertex 7.95 -19.591 -1.59099
      vertex 5.95 -18 -2.25
    endloop
  endfacet
  facet normal -8.49728e-17 0.923879 0.382684
    outer loop
      vertex 7.95 -19.591 -1.59099
      vertex 5.95 -19.591 -1.59099
      vertex 7.95 -20.25 2.22045e-16
    endloop
  endfacet
  facet normal -8.49728e-17 0.923879 0.382684
    outer loop
      vertex 7.95 -20.25 2.22045e-16
      vertex 5.95 -19.591 -1.59099
      vertex 5.95 -20.25 -2.22045e-16
    endloop
  endfacet
  facet normal 8.49728e-17 0.923879 -0.382684
    outer loop
      vertex 7.95 -20.25 2.22045e-16
      vertex 5.95 -20.25 -2.22045e-16
      vertex 7.95 -19.591 1.59099
    endloop
  endfacet
  facet normal 8.49728e-17 0.923879 -0.382684
    outer loop
      vertex 7.95 -19.591 1.59099
      vertex 5.95 -20.25 -2.22045e-16
      vertex 5.95 -19.591 1.59099
    endloop
  endfacet
  facet normal 0 0 1
    outer loop
      vertex -6.7 5.5 -7
      vertex -8 6.5 -7
      vertex -6.7 -5.5 -7
    endloop
  endfacet
  facet normal 0 0 1
    outer loop
      vertex 7.95 -6.5 -7
      vertex 7.95 -5.5 -7
      vertex -6.7 -5.5 -7
    endloop
  endfacet
  facet normal 0 0 1
    outer loop
      vertex -8 -6.5 -7
      vertex 7.95 -6.5 -7
      vertex -6.7 -5.5 -7
    endloop
  endfacet
  facet normal 0 0 1
    outer loop
      vertex 7.95 5.5 -7
      vertex 7.95 6.5 -7
      vertex -6.7 5.5 -7
    endloop
  endfacet
  facet normal 0 0 1
    outer loop
      vertex 7.95 6.5 -7
      vertex -8 6.5 -7
      vertex -6.7 5.5 -7
    endloop
  endfacet
  facet normal 0 0 1
    outer loop
      vertex -8 6.5 -7
      vertex -8 -6.5 -7
      vertex -6.7 -5.5 -7
    endloop
  endfacet
  facet normal 0 0 -1
    outer loop
      vertex 6.95 -11.9343 -9
      vertex 6.95 -5.5 -9
      vertex 7.95 -11.9343 -9
    endloop
  endfacet
  facet normal 0 0 -1
    outer loop
      vertex 7.95 -11.9343 -9
      vertex 6.95 -5.5 -9
      vertex 7.95 -5.5 -9
    endloop
  endfacet
  facet normal 0 0 -1
    outer loop
      vertex 6.95 5.5 -9
      vertex 6.95 11.9343 -9
      vertex 7.95 5.5 -9
    endloop
  endfacet
  facet normal 0 0 -1
    outer loop
      vertex 7.95 5.5 -9
      vertex 6.95 11.9343 -9
      vertex 7.95 11.9343 -9
    endloop
  endfacet
  facet normal 2.22045e-16 0 -1
    outer loop
      vertex 5.95 5.5 -9
      vertex 5.95 15 -9
      vertex 6.95 5.5 -9
    endloop
  endfacet
  facet normal 2.22045e-16 0 -1
    outer loop
      vertex 6.95 11.9343 -9
      vertex 5.95 15 -9
      vertex 7.95 15 -9
    endloop
  endfacet
  facet normal 2.22045e-16 0 -1
    outer loop
      vertex 6.95 11.9343 -9
      vertex 7.95 12.5 -9
      vertex 7.95 11.9343 -9
    endloop
  endfacet
  facet normal 2.22045e-16 0 -1
    outer loop
      vertex 6.95 11.9343 -9
      vertex 7.95 15 -9
      vertex 7.95 12.5 -9
    endloop
  endfacet
  facet normal 2.22045e-16 0 -1
    outer loop
      vertex 6.95 5.5 -9
      vertex 5.95 15 -9
      vertex 6.95 11.9343 -9
    endloop
  endfacet
  facet normal 2.20743e-16 0.108119 -0.994138
    outer loop
      vertex 5.95 16.9347 -8.78958
      vertex 7.95 16.9347 -8.78958
      vertex 5.95 15 -9
    endloop
  endfacet
  facet normal 2.20743e-16 0.108119 -0.994138
    outer loop
      vertex 5.95 15 -9
      vertex 7.95 16.9347 -8.78958
      vertex 7.95 15 -9
    endloop
  endfacet
  facet normal 2.10421e-16 0.319301 -0.947653
    outer loop
      vertex 5.95 18.779 -8.16818
      vertex 7.95 18.779 -8.16818
      vertex 5.95 16.9347 -8.78958
    endloop
  endfacet
  facet normal 2.10421e-16 0.319301 -0.947653
    outer loop
      vertex 5.95 16.9347 -8.78958
      vertex 7.95 18.779 -8.16818
      vertex 7.95 16.9347 -8.78958
    endloop
  endfacet
  facet normal 1.90261e-16 0.515554 -0.856857
    outer loop
      vertex 5.95 20.4466 -7.16484
      vertex 7.95 20.4466 -7.16484
      vertex 5.95 18.779 -8.16818
    endloop
  endfacet
  facet normal 1.90261e-16 0.515554 -0.856857
    outer loop
      vertex 5.95 18.779 -8.16818
      vertex 7.95 20.4466 -7.16484
      vertex 7.95 18.779 -8.16818
    endloop
  endfacet
  facet normal 1.61203e-16 0.6877 -0.725995
    outer loop
      vertex 5.95 21.8595 -5.82648
      vertex 7.95 21.8595 -5.82648
      vertex 5.95 20.4466 -7.16484
    endloop
  endfacet
  facet normal 1.61203e-16 0.6877 -0.725995
    outer loop
      vertex 5.95 20.4466 -7.16484
      vertex 7.95 21.8595 -5.82648
      vertex 7.95 20.4466 -7.16484
    endloop
  endfacet
  facet normal 1.24609e-16 0.827689 -0.561187
    outer loop
      vertex 5.95 22.9516 -4.21568
      vertex 7.95 22.9516 -4.21568
      vertex 5.95 21.8595 -5.82648
    endloop
  endfacet
  facet normal 1.24609e-16 0.827689 -0.561187
    outer loop
      vertex 5.95 21.8595 -5.82648
      vertex 7.95 22.9516 -4.21568
      vertex 7.95 21.8595 -5.82648
    endloop
  endfacet
  facet normal 8.21872e-17 0.928977 -0.370138
    outer loop
      vertex 5.95 23.6719 -2.40775
      vertex 7.95 23.6719 -2.40775
      vertex 5.95 22.9516 -4.21568
    endloop
  endfacet
  facet normal 8.21872e-17 0.928977 -0.370138
    outer loop
      vertex 5.95 22.9516 -4.21568
      vertex 7.95 23.6719 -2.40775
      vertex 7.95 22.9516 -4.21568
    endloop
  endfacet
  facet normal 3.59228e-17 0.986827 -0.161782
    outer loop
      vertex 5.95 23.9868 -0.48725
      vertex 7.95 23.9868 -0.48725
      vertex 5.95 23.6719 -2.40775
    endloop
  endfacet
  facet normal 3.59228e-17 0.986827 -0.161782
    outer loop
      vertex 5.95 23.6719 -2.40775
      vertex 7.95 23.9868 -0.48725
      vertex 7.95 23.6719 -2.40775
    endloop
  endfacet
  facet normal -1.20213e-17 0.998533 0.0541389
    outer loop
      vertex 5.95 23.8814 1.45604
      vertex 7.95 23.8814 1.45604
      vertex 5.95 23.9868 -0.48725
    endloop
  endfacet
  facet normal -1.20213e-17 0.998533 0.0541389
    outer loop
      vertex 5.95 23.9868 -0.48725
      vertex 7.95 23.8814 1.45604
      vertex 7.95 23.9868 -0.48725
    endloop
  endfacet
  facet normal -5.94033e-17 0.96355 0.267529
    outer loop
      vertex 5.95 23.3608 3.33124
      vertex 7.95 23.3608 3.33124
      vertex 5.95 23.8814 1.45604
    endloop
  endfacet
  facet normal -5.94033e-17 0.96355 0.267529
    outer loop
      vertex 5.95 23.8814 1.45604
      vertex 7.95 23.3608 3.33124
      vertex 7.95 23.8814 1.45604
    endloop
  endfacet
  facet normal -1.04007e-16 0.883512 0.468408
    outer loop
      vertex 5.95 22.4492 5.05068
      vertex 7.95 22.4492 5.05068
      vertex 5.95 23.3608 3.33124
    endloop
  endfacet
  facet normal -1.04007e-16 0.883512 0.468408
    outer loop
      vertex 5.95 23.3608 3.33124
      vertex 7.95 22.4492 5.05068
      vertex 7.95 23.3608 3.33124
    endloop
  endfacet
  facet normal -1.43749e-16 0.762162 0.647387
    outer loop
      vertex 5.95 21.1893 6.53396
      vertex 7.95 21.1893 6.53396
      vertex 5.95 22.4492 5.05068
    endloop
  endfacet
  facet normal -1.43749e-16 0.762162 0.647387
    outer loop
      vertex 5.95 22.4492 5.05068
      vertex 7.95 21.1893 6.53396
      vertex 7.95 22.4492 5.05068
    endloop
  endfacet
  facet normal -1.76768e-16 0.605175 0.796093
    outer loop
      vertex 5.95 21.1893 6.53396
      vertex 5.95 19.64 7.71171
      vertex 7.95 19.64 7.71171
    endloop
  endfacet
  facet normal -1.76768e-16 0.605175 0.796093
    outer loop
      vertex 7.95 21.1893 6.53396
      vertex 5.95 21.1893 6.53396
      vertex 7.95 19.64 7.71171
    endloop
  endfacet
  facet normal -2.01522e-16 0.419889 0.907575
    outer loop
      vertex 5.95 19.64 7.71171
      vertex 5.95 17.8737 8.52888
      vertex 7.95 17.8737 8.52888
    endloop
  endfacet
  facet normal -2.01522e-16 0.419889 0.907575
    outer loop
      vertex 7.95 19.64 7.71171
      vertex 5.95 19.64 7.71171
      vertex 7.95 17.8737 8.52888
    endloop
  endfacet
  facet normal -2.16853e-16 0.21497 0.976621
    outer loop
      vertex 5.95 17.8737 8.52888
      vertex 5.95 15.9731 8.94724
      vertex 7.95 15.9731 8.94724
    endloop
  endfacet
  facet normal -2.16853e-16 0.21497 0.976621
    outer loop
      vertex 7.95 17.8737 8.52888
      vertex 5.95 17.8737 8.52888
      vertex 7.95 15.9731 8.94724
    endloop
  endfacet
  facet normal -2.22045e-16 0 1
    outer loop
      vertex 5.95 15.9731 8.94724
      vertex 5.95 11.9343 8.94724
      vertex 7.95 11.9343 8.94724
    endloop
  endfacet
  facet normal -2.22045e-16 0 1
    outer loop
      vertex 7.95 15.9731 8.94724
      vertex 5.95 15.9731 8.94724
      vertex 7.95 11.9343 8.94724
    endloop
  endfacet
  facet normal 2.05142e-16 -0.382684 -0.923879
    outer loop
      vertex 7.95 19.591 1.59099
      vertex 7.95 18 2.25
      vertex 5.95 19.591 1.59099
    endloop
  endfacet
  facet normal 2.05142e-16 -0.382684 -0.923879
    outer loop
      vertex 5.95 19.591 1.59099
      vertex 7.95 18 2.25
      vertex 5.95 18 2.25
    endloop
  endfacet
  facet normal 2.05142e-16 0.382684 -0.923879
    outer loop
      vertex 7.95 16.409 1.59099
      vertex 5.95 16.409 1.59099
      vertex 7.95 18 2.25
    endloop
  endfacet
  facet normal 2.05142e-16 0.382684 -0.923879
    outer loop
      vertex 7.95 18 2.25
      vertex 5.95 16.409 1.59099
      vertex 5.95 18 2.25
    endloop
  endfacet
  facet normal 8.49728e-17 -0.923879 -0.382684
    outer loop
      vertex 5.95 20.25 -2.22045e-16
      vertex 7.95 20.25 2.22045e-16
      vertex 7.95 19.591 1.59099
    endloop
  endfacet
  facet normal 8.49728e-17 -0.923879 -0.382684
    outer loop
      vertex 5.95 19.591 1.59099
      vertex 5.95 20.25 -2.22045e-16
      vertex 7.95 19.591 1.59099
    endloop
  endfacet
  facet normal -8.49728e-17 -0.923879 0.382684
    outer loop
      vertex 5.95 19.591 -1.59099
      vertex 7.95 19.591 -1.59099
      vertex 7.95 20.25 2.22045e-16
    endloop
  endfacet
  facet normal -8.49728e-17 -0.923879 0.382684
    outer loop
      vertex 5.95 20.25 -2.22045e-16
      vertex 5.95 19.591 -1.59099
      vertex 7.95 20.25 2.22045e-16
    endloop
  endfacet
  facet normal -2.05142e-16 -0.382684 0.923879
    outer loop
      vertex 5.95 18 -2.25
      vertex 7.95 18 -2.25
      vertex 7.95 19.591 -1.59099
    endloop
  endfacet
  facet normal -2.05142e-16 -0.382684 0.923879
    outer loop
      vertex 5.95 19.591 -1.59099
      vertex 5.95 18 -2.25
      vertex 7.95 19.591 -1.59099
    endloop
  endfacet
  facet normal -2.05142e-16 0.382684 0.923879
    outer loop
      vertex 7.95 16.409 -1.59099
      vertex 7.95 18 -2.25
      vertex 5.95 18 -2.25
    endloop
  endfacet
  facet normal -2.05142e-16 0.382684 0.923879
    outer loop
      vertex 5.95 16.409 -1.59099
      vertex 7.95 16.409 -1.59099
      vertex 5.95 18 -2.25
    endloop
  endfacet
  facet normal -8.49728e-17 0.923879 0.382684
    outer loop
      vertex 7.95 16.409 -1.59099
      vertex 5.95 16.409 -1.59099
      vertex 7.95 15.75 2.22045e-16
    endloop
  endfacet
  facet normal -8.49728e-17 0.923879 0.382684
    outer loop
      vertex 7.95 15.75 2.22045e-16
      vertex 5.95 16.409 -1.59099
      vertex 5.95 15.75 -2.22045e-16
    endloop
  endfacet
  facet normal 8.49728e-17 0.923879 -0.382684
    outer loop
      vertex 7.95 15.75 2.22045e-16
      vertex 5.95 15.75 -2.22045e-16
      vertex 7.95 16.409 1.59099
    endloop
  endfacet
  facet normal 8.49728e-17 0.923879 -0.382684
    outer loop
      vertex 7.95 16.409 1.59099
      vertex 5.95 15.75 -2.22045e-16
      vertex 5.95 16.409 1.59099
    endloop
  endfacet
  facet normal 1 0 2.22045e-16
    outer loop
      vertex 7.95 15.9731 8.94724
      vertex 7.95 11.9343 8.94724
      vertex 7.95 11.9343 4
    endloop
  endfacet
  facet normal 1 0 2.22045e-16
    outer loop
      vertex 7.95 12.5 -9
      vertex 7.95 15.9731 8.94724
      vertex 7.95 12.5 4
    endloop
  endfacet
  facet normal 1 0 2.22045e-16
    outer loop
      vertex 7.95 12.5 4
      vertex 7.95 15.9731 8.94724
      vertex 7.95 11.9343 4
    endloop
  endfacet
  facet normal 1 0 2.22045e-16
    outer loop
      vertex 7.95 15 -9
      vertex 7.95 15.9731 8.94724
      vertex 7.95 12.5 -9
    endloop
  endfacet
  facet normal 1 0 2.22045e-16
    outer loop
      vertex 7.95 15.75 2.22045e-16
      vertex 7.95 15.9731 8.94724
      vertex 7.95 15 -9
    endloop
  endfacet
  facet normal 1 0 2.22045e-16
    outer loop
      vertex 7.95 20.25 2.22045e-16
      vertex 7.95 19.591 -1.59099
      vertex 7.95 21.8595 -5.82648
    endloop
  endfacet
  facet normal 1 0 2.22045e-16
    outer loop
      vertex 7.95 19.591 -1.59099
      vertex 7.95 18 -2.25
      vertex 7.95 20.4466 -7.16484
    endloop
  endfacet
  facet normal 1 0 2.22045e-16
    outer loop
      vertex 7.95 23.6719 -2.40775
      vertex 7.95 15.9731 8.94724
      vertex 7.95 22.9516 -4.21568
    endloop
  endfacet
  facet normal 1 0 2.22045e-16
    outer loop
      vertex 7.95 23.9868 -0.48725
      vertex 7.95 15.9731 8.94724
      vertex 7.95 23.6719 -2.40775
    endloop
  endfacet
  facet normal 1 0 2.22045e-16
    outer loop
      vertex 7.95 23.8814 1.45604
      vertex 7.95 15.9731 8.94724
      vertex 7.95 23.9868 -0.48725
    endloop
  endfacet
  facet normal 1 0 2.22045e-16
    outer loop
      vertex 7.95 23.3608 3.33124
      vertex 7.95 15.9731 8.94724
      vertex 7.95 23.8814 1.45604
    endloop
  endfacet
  facet normal 1 0 2.22045e-16
    outer loop
      vertex 7.95 22.4492 5.05068
      vertex 7.95 15.9731 8.94724
      vertex 7.95 23.3608 3.33124
    endloop
  endfacet
  facet normal 1 0 2.22045e-16
    outer loop
      vertex 7.95 21.1893 6.53396
      vertex 7.95 15.9731 8.94724
      vertex 7.95 22.4492 5.05068
    endloop
  endfacet
  facet normal 1 0 2.22045e-16
    outer loop
      vertex 7.95 19.64 7.71171
      vertex 7.95 15.9731 8.94724
      vertex 7.95 21.1893 6.53396
    endloop
  endfacet
  facet normal 1 0 2.22045e-16
    outer loop
      vertex 7.95 17.8737 8.52888
      vertex 7.95 15.9731 8.94724
      vertex 7.95 19.64 7.71171
    endloop
  endfacet
  facet normal 1 0 2.22045e-16
    outer loop
      vertex 7.95 18 -2.25
      vertex 7.95 16.9347 -8.78958
      vertex 7.95 18.779 -8.16818
    endloop
  endfacet
  facet normal 1 0 2.22045e-16
    outer loop
      vertex 7.95 18 -2.25
      vertex 7.95 16.409 -1.59099
      vertex 7.95 16.9347 -8.78958
    endloop
  endfacet
  facet normal 1 0 2.22045e-16
    outer loop
      vertex 7.95 22.9516 -4.21568
      vertex 7.95 15.9731 8.94724
      vertex 7.95 19.591 1.59099
    endloop
  endfacet
  facet normal 1 0 2.22045e-16
    outer loop
      vertex 7.95 22.9516 -4.21568
      vertex 7.95 20.25 2.22045e-16
      vertex 7.95 21.8595 -5.82648
    endloop
  endfacet
  facet normal 1 0 2.22045e-16
    outer loop
      vertex 7.95 22.9516 -4.21568
      vertex 7.95 19.591 1.59099
      vertex 7.95 20.25 2.22045e-16
    endloop
  endfacet
  facet normal 1 0 2.22045e-16
    outer loop
      vertex 7.95 21.8595 -5.82648
      vertex 7.95 19.591 -1.59099
      vertex 7.95 20.4466 -7.16484
    endloop
  endfacet
  facet normal 1 0 2.22045e-16
    outer loop
      vertex 7.95 20.4466 -7.16484
      vertex 7.95 18 -2.25
      vertex 7.95 18.779 -8.16818
    endloop
  endfacet
  facet normal 1 0 2.22045e-16
    outer loop
      vertex 7.95 18 2.25
      vertex 7.95 19.591 1.59099
      vertex 7.95 15.9731 8.94724
    endloop
  endfacet
  facet normal 1 0 2.22045e-16
    outer loop
      vertex 7.95 16.9347 -8.78958
      vertex 7.95 16.409 -1.59099
      vertex 7.95 15 -9
    endloop
  endfacet
  facet normal 1 0 2.22045e-16
    outer loop
      vertex 7.95 16.409 -1.59099
      vertex 7.95 15.75 2.22045e-16
      vertex 7.95 15 -9
    endloop
  endfacet
  facet normal 1 0 2.22045e-16
    outer loop
      vertex 7.95 15.75 2.22045e-16
      vertex 7.95 16.409 1.59099
      vertex 7.95 15.9731 8.94724
    endloop
  endfacet
  facet normal 1 0 2.22045e-16
    outer loop
      vertex 7.95 16.409 1.59099
      vertex 7.95 18 2.25
      vertex 7.95 15.9731 8.94724
    endloop
  endfacet
endsolid OpenSCAD_Model
