solid OpenSCAD_Model
  facet normal -1 0 0
    outer loop
      vertex -15 -15 -3
      vertex -15 -15 -1
      vertex -15 15 -3
    endloop
  endfacet
  facet normal -1 0 0
    outer loop
      vertex -15 15 -3
      vertex -15 -15 -1
      vertex -15 15 -1
    endloop
  endfacet
  facet normal 0 -1 0
    outer loop
      vertex -15 -15 -1
      vertex -15 -15 -3
      vertex 15 -15 -3
    endloop
  endfacet
  facet normal 0 -1 0
    outer loop
      vertex 15 -15 -1
      vertex -15 -15 -1
      vertex 15 -15 -3
    endloop
  endfacet
  facet normal 0 0 -1
    outer loop
      vertex -9.4 0 -3
      vertex -15 15 -3
      vertex 15 -15 -3
    endloop
  endfacet
  facet normal 0 0 -1
    outer loop
      vertex 0.478976 12.4241 -3
      vertex -15 15 -3
      vertex 15 15 -3
    endloop
  endfacet
  facet normal 0 0 -1
    outer loop
      vertex -15 -15 -3
      vertex -15 15 -3
      vertex -12.204 0.911067 -3
    endloop
  endfacet
  facet normal 0 0 -1
    outer loop
      vertex -15 -15 -3
      vertex -12.204 0.911067 -3
      vertex -12.204 -0.911067 -3
    endloop
  endfacet
  facet normal 0 0 -1
    outer loop
      vertex 0.478976 -9.47586 -3
      vertex -12.204 -0.911067 -3
      vertex 15 -15 -3
    endloop
  endfacet
  facet normal 0 0 -1
    outer loop
      vertex -12.204 -0.911067 -3
      vertex -10.471 -1.47414 -3
      vertex 15 -15 -3
    endloop
  endfacet
  facet normal 0 0 -1
    outer loop
      vertex -10.471 1.47414 -3
      vertex -15 15 -3
      vertex -9.4 0 -3
    endloop
  endfacet
  facet normal 0 0 -1
    outer loop
      vertex 1.55 -10.95 -3
      vertex 15 -15 -3
      vertex 0.478976 -12.4241 -3
    endloop
  endfacet
  facet normal 0 0 -1
    outer loop
      vertex -12.204 0.911067 -3
      vertex -15 15 -3
      vertex -10.471 1.47414 -3
    endloop
  endfacet
  facet normal 0 0 -1
    outer loop
      vertex -15 -15 -3
      vertex -12.204 -0.911067 -3
      vertex -1.25398 -10.0389 -3
    endloop
  endfacet
  facet normal 0 0 -1
    outer loop
      vertex -15 -15 -3
      vertex -1.25398 -10.0389 -3
      vertex -1.25398 -11.8611 -3
    endloop
  endfacet
  facet normal 0 0 -1
    outer loop
      vertex -15 -15 -3
      vertex -1.25398 -11.8611 -3
      vertex 0.478976 -12.4241 -3
    endloop
  endfacet
  facet normal 0 0 -1
    outer loop
      vertex -15 -15 -3
      vertex 0.478976 -12.4241 -3
      vertex 15 -15 -3
    endloop
  endfacet
  facet normal 0 0 -1
    outer loop
      vertex 0.478976 -9.47586 -3
      vertex 15 -15 -3
      vertex 1.55 -10.95 -3
    endloop
  endfacet
  facet normal 0 0 -1
    outer loop
      vertex -1.25398 -10.0389 -3
      vertex -12.204 -0.911067 -3
      vertex 0.478976 -9.47586 -3
    endloop
  endfacet
  facet normal 0 0 -1
    outer loop
      vertex 0.478976 9.47586 -3
      vertex 15 -15 -3
      vertex -1.25398 10.0389 -3
    endloop
  endfacet
  facet normal 0 0 -1
    outer loop
      vertex -1.25398 10.0389 -3
      vertex -15 15 -3
      vertex -1.25398 11.8611 -3
    endloop
  endfacet
  facet normal 0 0 -1
    outer loop
      vertex 15 -15 -3
      vertex -15 15 -3
      vertex -1.25398 10.0389 -3
    endloop
  endfacet
  facet normal 0 0 -1
    outer loop
      vertex 0.478976 12.4241 -3
      vertex 15 15 -3
      vertex 1.55 10.95 -3
    endloop
  endfacet
  facet normal 0 0 -1
    outer loop
      vertex 9.69602 0.911067 -3
      vertex 0.478976 9.47586 -3
      vertex 15 15 -3
    endloop
  endfacet
  facet normal 0 0 -1
    outer loop
      vertex 0.478976 9.47586 -3
      vertex 1.55 10.95 -3
      vertex 15 15 -3
    endloop
  endfacet
  facet normal 0 0 -1
    outer loop
      vertex -1.25398 11.8611 -3
      vertex -15 15 -3
      vertex 0.478976 12.4241 -3
    endloop
  endfacet
  facet normal 0 0 -1
    outer loop
      vertex 11.429 -1.47414 -3
      vertex 15 -15 -3
      vertex 9.69602 -0.911067 -3
    endloop
  endfacet
  facet normal 0 0 -1
    outer loop
      vertex 9.69602 -0.911067 -3
      vertex 0.478976 9.47586 -3
      vertex 9.69602 0.911067 -3
    endloop
  endfacet
  facet normal 0 0 -1
    outer loop
      vertex 11.429 1.47414 -3
      vertex 9.69602 0.911067 -3
      vertex 15 15 -3
    endloop
  endfacet
  facet normal 0 0 -1
    outer loop
      vertex 15 -15 -3
      vertex 0.478976 9.47586 -3
      vertex 9.69602 -0.911067 -3
    endloop
  endfacet
  facet normal 0 0 -1
    outer loop
      vertex 11.429 1.47414 -3
      vertex 15 15 -3
      vertex 12.5 0 -3
    endloop
  endfacet
  facet normal 0 0 -1
    outer loop
      vertex 15 -15 -3
      vertex 11.429 -1.47414 -3
      vertex 12.5 0 -3
    endloop
  endfacet
  facet normal 0 0 -1
    outer loop
      vertex 15 -15 -3
      vertex 12.5 0 -3
      vertex 15 15 -3
    endloop
  endfacet
  facet normal 0 0 -1
    outer loop
      vertex -9.4 0 -3
      vertex 15 -15 -3
      vertex -10.471 -1.47414 -3
    endloop
  endfacet
  facet normal 0 1 0
    outer loop
      vertex -15 15 -3
      vertex -15 15 -1
      vertex 15 15 -3
    endloop
  endfacet
  facet normal 0 1 0
    outer loop
      vertex 15 15 -3
      vertex -15 15 -1
      vertex 15 15 -1
    endloop
  endfacet
  facet normal 0 0 1
    outer loop
      vertex 0.478976 -12.4241 -1
      vertex -15 -15 -1
      vertex 15 -15 -1
    endloop
  endfacet
  facet normal 0 0 1
    outer loop
      vertex -7.5 7.5 -1
      vertex -15 15 -1
      vertex -10.471 1.47414 -1
    endloop
  endfacet
  facet normal 0 0 1
    outer loop
      vertex -7.5 -7.5 -1
      vertex -7.5 7.5 -1
      vertex -9.4 0 -1
    endloop
  endfacet
  facet normal 0 0 1
    outer loop
      vertex -15 15 -1
      vertex -15 -15 -1
      vertex -12.204 -0.911067 -1
    endloop
  endfacet
  facet normal 0 0 1
    outer loop
      vertex -7.5 -7.5 -1
      vertex -9.4 0 -1
      vertex -10.471 -1.47414 -1
    endloop
  endfacet
  facet normal 0 0 1
    outer loop
      vertex -15 15 -1
      vertex -12.204 -0.911067 -1
      vertex -12.204 0.911067 -1
    endloop
  endfacet
  facet normal 0 0 1
    outer loop
      vertex -15 15 -1
      vertex -12.204 0.911067 -1
      vertex -10.471 1.47414 -1
    endloop
  endfacet
  facet normal 0 0 1
    outer loop
      vertex -7.5 -7.5 -1
      vertex -10.471 -1.47414 -1
      vertex -12.204 -0.911067 -1
    endloop
  endfacet
  facet normal 0 0 1
    outer loop
      vertex -12.204 -0.911067 -1
      vertex -15 -15 -1
      vertex -7.5 -7.5 -1
    endloop
  endfacet
  facet normal 0 0 1
    outer loop
      vertex 1.55 -10.95 -1
      vertex 0.478976 -12.4241 -1
      vertex 15 -15 -1
    endloop
  endfacet
  facet normal 0 0 1
    outer loop
      vertex -1.25398 10.0389 -1
      vertex -15 15 -1
      vertex -7.5 7.5 -1
    endloop
  endfacet
  facet normal 0 0 1
    outer loop
      vertex 0.478976 9.47586 -1
      vertex -7.5 7.5 -1
      vertex 7.5 7.5 -1
    endloop
  endfacet
  facet normal 0 0 1
    outer loop
      vertex 9.69602 -0.911067 -1
      vertex 7.5 -7.5 -1
      vertex 15 -15 -1
    endloop
  endfacet
  facet normal 0 0 1
    outer loop
      vertex 0.478976 9.47586 -1
      vertex -1.25398 10.0389 -1
      vertex -7.5 7.5 -1
    endloop
  endfacet
  facet normal 0 0 1
    outer loop
      vertex -7.5 -7.5 -1
      vertex -15 -15 -1
      vertex -1.25398 -11.8611 -1
    endloop
  endfacet
  facet normal 0 0 1
    outer loop
      vertex 0.478976 -9.47586 -1
      vertex 1.55 -10.95 -1
      vertex 15 -15 -1
    endloop
  endfacet
  facet normal 0 0 1
    outer loop
      vertex -7.5 -7.5 -1
      vertex -1.25398 -11.8611 -1
      vertex -1.25398 -10.0389 -1
    endloop
  endfacet
  facet normal 0 0 1
    outer loop
      vertex -9.4 0 -1
      vertex -7.5 7.5 -1
      vertex -10.471 1.47414 -1
    endloop
  endfacet
  facet normal 0 0 1
    outer loop
      vertex 12.5 0 -1
      vertex 11.429 -1.47414 -1
      vertex 15 -15 -1
    endloop
  endfacet
  facet normal 0 0 1
    outer loop
      vertex -1.25398 -11.8611 -1
      vertex -15 -15 -1
      vertex 0.478976 -12.4241 -1
    endloop
  endfacet
  facet normal 0 0 1
    outer loop
      vertex -1.25398 11.8611 -1
      vertex -15 15 -1
      vertex -1.25398 10.0389 -1
    endloop
  endfacet
  facet normal 0 0 1
    outer loop
      vertex 0.478976 12.4241 -1
      vertex -15 15 -1
      vertex -1.25398 11.8611 -1
    endloop
  endfacet
  facet normal 0 0 1
    outer loop
      vertex 1.55 10.95 -1
      vertex 0.478976 9.47586 -1
      vertex 15 15 -1
    endloop
  endfacet
  facet normal 0 0 1
    outer loop
      vertex 15 15 -1
      vertex -15 15 -1
      vertex 0.478976 12.4241 -1
    endloop
  endfacet
  facet normal 0 0 1
    outer loop
      vertex 15 15 -1
      vertex 0.478976 9.47586 -1
      vertex 7.5 7.5 -1
    endloop
  endfacet
  facet normal 0 0 1
    outer loop
      vertex 0.478976 12.4241 -1
      vertex 1.55 10.95 -1
      vertex 15 15 -1
    endloop
  endfacet
  facet normal 0 0 1
    outer loop
      vertex 7.5 7.5 -1
      vertex 7.5 -7.5 -1
      vertex 9.69602 -0.911067 -1
    endloop
  endfacet
  facet normal 0 0 1
    outer loop
      vertex 9.69602 0.911067 -1
      vertex 11.429 1.47414 -1
      vertex 7.5 7.5 -1
    endloop
  endfacet
  facet normal 0 0 1
    outer loop
      vertex 7.5 7.5 -1
      vertex 9.69602 -0.911067 -1
      vertex 9.69602 0.911067 -1
    endloop
  endfacet
  facet normal 0 0 1
    outer loop
      vertex 15 15 -1
      vertex 7.5 7.5 -1
      vertex 11.429 1.47414 -1
    endloop
  endfacet
  facet normal 0 0 1
    outer loop
      vertex 15 15 -1
      vertex 12.5 0 -1
      vertex 15 -15 -1
    endloop
  endfacet
  facet normal 0 0 1
    outer loop
      vertex 15 15 -1
      vertex 11.429 1.47414 -1
      vertex 12.5 0 -1
    endloop
  endfacet
  facet normal 0 0 1
    outer loop
      vertex -1.25398 -10.0389 -1
      vertex 0.478976 -9.47586 -1
      vertex -7.5 -7.5 -1
    endloop
  endfacet
  facet normal 0 0 1
    outer loop
      vertex 11.429 -1.47414 -1
      vertex 9.69602 -0.911067 -1
      vertex 15 -15 -1
    endloop
  endfacet
  facet normal 0 0 1
    outer loop
      vertex 7.5 -7.5 -1
      vertex 0.478976 -9.47586 -1
      vertex 15 -15 -1
    endloop
  endfacet
  facet normal 0 0 1
    outer loop
      vertex 7.5 -7.5 -1
      vertex -7.5 -7.5 -1
      vertex 0.478976 -9.47586 -1
    endloop
  endfacet
  facet normal 1 0 0
    outer loop
      vertex 15 -15 -1
      vertex 15 -15 -3
      vertex 15 15 -3
    endloop
  endfacet
  facet normal 1 0 0
    outer loop
      vertex 15 15 -1
      vertex 15 -15 -1
      vertex 15 15 -3
    endloop
  endfacet
  facet normal 0.309017 -0.951056 0
    outer loop
      vertex -10.471 1.47414 -3
      vertex -10.471 1.47414 -1
      vertex -12.204 0.911067 -1
    endloop
  endfacet
  facet normal 0.309017 -0.951056 0
    outer loop
      vertex -12.204 0.911067 -3
      vertex -10.471 1.47414 -3
      vertex -12.204 0.911067 -1
    endloop
  endfacet
  facet normal 1 0 0
    outer loop
      vertex -12.204 0.911067 -3
      vertex -12.204 0.911067 -1
      vertex -12.204 -0.911067 -1
    endloop
  endfacet
  facet normal 1 0 0
    outer loop
      vertex -12.204 -0.911067 -3
      vertex -12.204 0.911067 -3
      vertex -12.204 -0.911067 -1
    endloop
  endfacet
  facet normal -0.809017 -0.587785 0
    outer loop
      vertex -9.4 0 -1
      vertex -10.471 1.47414 -1
      vertex -9.4 0 -3
    endloop
  endfacet
  facet normal -0.809017 -0.587785 0
    outer loop
      vertex -9.4 0 -3
      vertex -10.471 1.47414 -1
      vertex -10.471 1.47414 -3
    endloop
  endfacet
  facet normal -0.809017 0.587785 0
    outer loop
      vertex -9.4 0 -1
      vertex -9.4 0 -3
      vertex -10.471 -1.47414 -1
    endloop
  endfacet
  facet normal -0.809017 0.587785 0
    outer loop
      vertex -10.471 -1.47414 -1
      vertex -9.4 0 -3
      vertex -10.471 -1.47414 -3
    endloop
  endfacet
  facet normal 0.309017 0.951056 0
    outer loop
      vertex -10.471 -1.47414 -1
      vertex -10.471 -1.47414 -3
      vertex -12.204 -0.911067 -1
    endloop
  endfacet
  facet normal 0.309017 0.951056 0
    outer loop
      vertex -12.204 -0.911067 -1
      vertex -10.471 -1.47414 -3
      vertex -12.204 -0.911067 -3
    endloop
  endfacet
  facet normal 0.309017 -0.951056 0
    outer loop
      vertex 0.478976 -9.47586 -3
      vertex 0.478976 -9.47586 -1
      vertex -1.25398 -10.0389 -1
    endloop
  endfacet
  facet normal 0.309017 -0.951056 0
    outer loop
      vertex -1.25398 -10.0389 -3
      vertex 0.478976 -9.47586 -3
      vertex -1.25398 -10.0389 -1
    endloop
  endfacet
  facet normal 1 0 0
    outer loop
      vertex -1.25398 -10.0389 -3
      vertex -1.25398 -10.0389 -1
      vertex -1.25398 -11.8611 -1
    endloop
  endfacet
  facet normal 1 0 0
    outer loop
      vertex -1.25398 -11.8611 -3
      vertex -1.25398 -10.0389 -3
      vertex -1.25398 -11.8611 -1
    endloop
  endfacet
  facet normal -0.809017 -0.587785 0
    outer loop
      vertex 1.55 -10.95 -1
      vertex 0.478976 -9.47586 -1
      vertex 1.55 -10.95 -3
    endloop
  endfacet
  facet normal -0.809017 -0.587785 0
    outer loop
      vertex 1.55 -10.95 -3
      vertex 0.478976 -9.47586 -1
      vertex 0.478976 -9.47586 -3
    endloop
  endfacet
  facet normal -0.809017 0.587785 0
    outer loop
      vertex 1.55 -10.95 -1
      vertex 1.55 -10.95 -3
      vertex 0.478976 -12.4241 -1
    endloop
  endfacet
  facet normal -0.809017 0.587785 0
    outer loop
      vertex 0.478976 -12.4241 -1
      vertex 1.55 -10.95 -3
      vertex 0.478976 -12.4241 -3
    endloop
  endfacet
  facet normal 0.309017 0.951056 0
    outer loop
      vertex 0.478976 -12.4241 -1
      vertex 0.478976 -12.4241 -3
      vertex -1.25398 -11.8611 -1
    endloop
  endfacet
  facet normal 0.309017 0.951056 0
    outer loop
      vertex -1.25398 -11.8611 -1
      vertex 0.478976 -12.4241 -3
      vertex -1.25398 -11.8611 -3
    endloop
  endfacet
  facet normal 0.309017 -0.951056 0
    outer loop
      vertex 0.478976 12.4241 -3
      vertex 0.478976 12.4241 -1
      vertex -1.25398 11.8611 -1
    endloop
  endfacet
  facet normal 0.309017 -0.951056 0
    outer loop
      vertex -1.25398 11.8611 -3
      vertex 0.478976 12.4241 -3
      vertex -1.25398 11.8611 -1
    endloop
  endfacet
  facet normal 1 0 0
    outer loop
      vertex -1.25398 11.8611 -3
      vertex -1.25398 11.8611 -1
      vertex -1.25398 10.0389 -1
    endloop
  endfacet
  facet normal 1 0 0
    outer loop
      vertex -1.25398 10.0389 -3
      vertex -1.25398 11.8611 -3
      vertex -1.25398 10.0389 -1
    endloop
  endfacet
  facet normal -0.809017 -0.587785 0
    outer loop
      vertex 1.55 10.95 -1
      vertex 0.478976 12.4241 -1
      vertex 1.55 10.95 -3
    endloop
  endfacet
  facet normal -0.809017 -0.587785 0
    outer loop
      vertex 1.55 10.95 -3
      vertex 0.478976 12.4241 -1
      vertex 0.478976 12.4241 -3
    endloop
  endfacet
  facet normal -0.809017 0.587785 0
    outer loop
      vertex 1.55 10.95 -1
      vertex 1.55 10.95 -3
      vertex 0.478976 9.47586 -1
    endloop
  endfacet
  facet normal -0.809017 0.587785 0
    outer loop
      vertex 0.478976 9.47586 -1
      vertex 1.55 10.95 -3
      vertex 0.478976 9.47586 -3
    endloop
  endfacet
  facet normal 0.309017 0.951056 0
    outer loop
      vertex 0.478976 9.47586 -1
      vertex 0.478976 9.47586 -3
      vertex -1.25398 10.0389 -1
    endloop
  endfacet
  facet normal 0.309017 0.951056 0
    outer loop
      vertex -1.25398 10.0389 -1
      vertex 0.478976 9.47586 -3
      vertex -1.25398 10.0389 -3
    endloop
  endfacet
  facet normal 0.309017 -0.951056 0
    outer loop
      vertex 11.429 1.47414 -3
      vertex 11.429 1.47414 -1
      vertex 9.69602 0.911067 -1
    endloop
  endfacet
  facet normal 0.309017 -0.951056 0
    outer loop
      vertex 9.69602 0.911067 -3
      vertex 11.429 1.47414 -3
      vertex 9.69602 0.911067 -1
    endloop
  endfacet
  facet normal 1 0 0
    outer loop
      vertex 9.69602 0.911067 -3
      vertex 9.69602 0.911067 -1
      vertex 9.69602 -0.911067 -1
    endloop
  endfacet
  facet normal 1 0 0
    outer loop
      vertex 9.69602 -0.911067 -3
      vertex 9.69602 0.911067 -3
      vertex 9.69602 -0.911067 -1
    endloop
  endfacet
  facet normal -0.809017 -0.587785 0
    outer loop
      vertex 12.5 0 -1
      vertex 11.429 1.47414 -1
      vertex 12.5 0 -3
    endloop
  endfacet
  facet normal -0.809017 -0.587785 0
    outer loop
      vertex 12.5 0 -3
      vertex 11.429 1.47414 -1
      vertex 11.429 1.47414 -3
    endloop
  endfacet
  facet normal -0.809017 0.587785 0
    outer loop
      vertex 12.5 0 -1
      vertex 12.5 0 -3
      vertex 11.429 -1.47414 -1
    endloop
  endfacet
  facet normal -0.809017 0.587785 0
    outer loop
      vertex 11.429 -1.47414 -1
      vertex 12.5 0 -3
      vertex 11.429 -1.47414 -3
    endloop
  endfacet
  facet normal 0.309017 0.951056 0
    outer loop
      vertex 11.429 -1.47414 -1
      vertex 11.429 -1.47414 -3
      vertex 9.69602 -0.911067 -1
    endloop
  endfacet
  facet normal 0.309017 0.951056 0
    outer loop
      vertex 9.69602 -0.911067 -1
      vertex 11.429 -1.47414 -3
      vertex 9.69602 -0.911067 -3
    endloop
  endfacet
  facet normal -1 0 0
    outer loop
      vertex -7.5 -7.5 -1
      vertex -7.5 -7.5 2
      vertex -7.5 7.5 -1
    endloop
  endfacet
  facet normal -1 0 0
    outer loop
      vertex -7.5 7.5 -1
      vertex -7.5 -7.5 2
      vertex -7.5 7.5 2
    endloop
  endfacet
  facet normal 0 -1 0
    outer loop
      vertex -7.5 -7.5 2
      vertex -7.5 -7.5 -1
      vertex 7.5 -7.5 -1
    endloop
  endfacet
  facet normal 0 -1 0
    outer loop
      vertex 7.5 -7.5 2
      vertex -7.5 -7.5 2
      vertex 7.5 -7.5 -1
    endloop
  endfacet
  facet normal 1 0 0
    outer loop
      vertex 7.5 -7.5 2
      vertex 7.5 -7.5 -1
      vertex 7.5 7.5 -1
    endloop
  endfacet
  facet normal 1 0 0
    outer loop
      vertex 7.5 7.5 2
      vertex 7.5 -7.5 2
      vertex 7.5 7.5 -1
    endloop
  endfacet
  facet normal 0 1 0
    outer loop
      vertex -7.5 7.5 -1
      vertex -7.5 7.5 2
      vertex 7.5 7.5 -1
    endloop
  endfacet
  facet normal 0 1 0
    outer loop
      vertex 7.5 7.5 -1
      vertex -7.5 7.5 2
      vertex 7.5 7.5 2
    endloop
  endfacet
  facet normal 0 0 1
    outer loop
      vertex -7.5 7.5 2
      vertex -7.5 -7.5 2
      vertex 7.5 -7.5 2
    endloop
  endfacet
  facet normal 0 0 1
    outer loop
      vertex 7.5 7.5 2
      vertex -7.5 7.5 2
      vertex 7.5 -7.5 2
    endloop
  endfacet
endsolid OpenSCAD_Model
